<?xml version="1.0" encoding="UTF-8" standalone="no"?>
<!DOCTYPE svg PUBLIC "-//W3C//DTD SVG 1.1//EN" "http://www.w3.org/Graphics/SVG/1.1/DTD/svg11.dtd">
<svg width="100%" height="100%" viewBox="0 0 216 55" version="1.1" xmlns="http://www.w3.org/2000/svg" xmlns:xlink="http://www.w3.org/1999/xlink" xml:space="preserve" xmlns:serif="http://www.serif.com/" style="fill-rule:evenodd;clip-rule:evenodd;stroke-linejoin:round;stroke-miterlimit:2;">
    <g id="Artboard1" transform="matrix(0.990826,0,0,0.846154,-53.5046,-8.46154)">
        <rect x="54" y="10" width="218" height="65" style="fill:none;"/>
        <clipPath id="_clip1">
            <rect x="54" y="10" width="218" height="65"/>
        </clipPath>
        <g clip-path="url(#_clip1)">
            <g transform="matrix(0.778571,0,0,0.948649,44.3399,-6.60934)">
                <path d="M15,50L30,20L60,20L75,50L60,80L30,80L15,50Z" style="fill:rgb(28,116,238);fill-opacity:0.5;fill-rule:nonzero;"/>
                <path d="M25,50L40,25L70,25L85,50L70,75L40,75L25,50Z" style="fill:url(#_Linear2);fill-rule:nonzero;"/>
            </g>
            <g transform="matrix(1.00926,0,0,1.18182,110.724,58.4545)">
                <text x="0px" y="0px" style="font-family:'Helvetica-Bold', 'Helvetica';font-weight:700;font-size:40px;fill:rgb(6,137,205);">Credible</text>
            </g>
            <g transform="matrix(0.892086,0,0,1.04461,217.79,72.7756)">
                <text x="0px" y="0px" style="font-family:'Helvetica';font-size:14px;fill:white;">by SMCG</text>
            </g>
        </g>
    </g>
    <defs>
        <linearGradient id="_Linear2" x1="0" y1="0" x2="1" y2="0" gradientUnits="userSpaceOnUse" gradientTransform="matrix(60,0,0,60,25,25)">
            <stop offset="0" style="stop-color:rgb(28,116,238);stop-opacity:1"/>
            <stop offset="1" style="stop-color:rgb(28,116,238);stop-opacity:0.5"/>
        </linearGradient>
    </defs>
</svg>